<?xml version="1.0" encoding="UTF-8"?>
<!DOCTYPE svg PUBLIC "-//W3C//DTD SVG 1.1//EN" "http://www.w3.org/Graphics/SVG/1.1/DTD/svg11.dtd">
<!-- Creator: CorelDRAW 2021 (64-Bit) -->
<svg xmlns="http://www.w3.org/2000/svg" xml:space="preserve" width="170mm" height="50mm" version="1.1" style="shape-rendering:geometricPrecision; text-rendering:geometricPrecision; image-rendering:optimizeQuality; fill-rule:evenodd; clip-rule:evenodd"
viewBox="0 0 17000 5000"
 xmlns:xlink="http://www.w3.org/1999/xlink"
 xmlns:xodm="http://www.corel.com/coreldraw/odm/2003">
 <defs>
  <style type="text/css">
   <![CDATA[
    .fil0 {fill:#0E0064}
    .fil1 {fill:#FFB800}
   ]]>
  </style>
 </defs>
 <g id="Capa_x0020_1">
  <metadata id="CorelCorpID_0Corel-Layer"/>
  <g id="_2162390726864">
   <path class="fil0" d="M606.45 4098.49c-21.9,41.41 -124.44,236.52 -127.17,269.35l2857.93 0.25c46.43,-0.06 57.95,-8.09 104.32,-7.89 183.3,0.8 476.5,-63.04 655.87,-114.67 59.96,-17.26 113.93,-33.19 169.37,-55.06 344.69,-136.01 543.33,-251.14 818.93,-505.24 20.92,-19.31 31.85,-31.66 49.81,-54.92 29.13,-37.73 92.58,-98.13 155.03,-181.64 150.87,-201.73 217.78,-340.3 311.01,-571.79 20.46,-50.79 39.9,-109.67 54.49,-162.47 12.24,-44.29 43.81,-132.69 44.86,-179.59l-1772.96 0c0,164.33 -99.44,337.83 -170.88,435.11 -424.31,577.68 -1383.49,843.63 -2070.24,982.06 -89.34,18 -168.86,30.62 -260.68,46.04 -113.23,19.04 -709.17,100.46 -819.69,100.46z"/>
   <path class="fil1" d="M1810.87 2534.82l1735.54 0c37.59,0 11.99,-33.99 33.19,-116.44 67.01,-260.6 249.24,-455.78 452.03,-617.8 109.18,-87.21 245.6,-169.9 377.57,-235.9 612.68,-306.32 1242.75,-439.07 1919.65,-534.12 76.9,-10.79 472.13,-59.41 554.02,-59.41 27.29,-51.58 127.35,-237.98 134.65,-269.35l-2865.17 -0.01c-76.02,-0.17 -142.62,8.64 -210.1,14.33 -400.44,33.73 -840.95,175.75 -1167.83,380.75 -223.3,140.04 -422.36,322.97 -581.03,533.67 -32.09,42.6 -57.19,83.36 -87.82,129.13 -127.43,190.41 -241.31,475.92 -299.26,703.31 -8.39,32.87 -29.39,71.84 4.56,71.84z"/>
   <path class="fil0" d="M14715.3 1876.43c-16.99,72.93 -102.21,321.16 -104.74,351.64l161.67 -55.28c57.56,-19.14 109.28,-31.13 170.49,-46.48 132.87,-33.27 737.6,-156.1 737.6,116.72 0,263.02 -369.55,284.82 -611.92,345.67 -81.35,20.43 -166.92,41.13 -247.49,66.71 -163.18,51.82 -290.63,110.3 -410.13,210.8 -325.83,274.04 -291.05,872.31 296.79,888.38 35.7,0.97 90.84,5.04 112.46,5.04 69.77,0 263.76,-13.62 335.06,-29.31 39.57,-8.71 60.63,-93.56 84.93,-154.48 10.84,-27.15 24.5,-58.15 35.26,-84.45 12.55,-30.66 31.69,-59.55 38.48,-88.69 -25.95,2.15 -36.68,8.84 -58.92,15.89 -127.62,40.49 -396.67,74.92 -493.65,-39.34 -96.59,-113.8 -31.87,-261.38 81.22,-343.22 187.68,-135.82 501.53,-161.22 658.49,-239.23l119.58 -59.98c-47.51,203.93 -99.99,509.31 -144,731.35 -10.75,54.21 -50.51,208.82 -50.51,248.76 124.04,0 321.45,-19.15 443.43,-2.04 126.27,17.72 87.4,10.66 129.39,-240.58l154.69 -832.88c32.29,-161.46 72.94,-326.57 72.94,-488.18 0,-292.68 -366.78,-381.56 -605.94,-381.56 -384.17,0 -543.34,20.43 -905.18,104.74z"/>
   <path class="fil0" d="M12007.23 1876.43c-12.91,55.47 -32.34,116.59 -49.67,174.77l-55.06 176.87 161.68 -55.28c176.98,-58.86 633.24,-159.53 818.67,-64.78 126.21,64.49 190.11,328.72 -271.5,424.98 -86.32,18 -167.45,34.73 -251.01,55.71 -39.34,9.88 -81.82,19.21 -125.53,31.58 -115.02,32.55 -234.88,67.48 -342.34,121.48 -79.38,39.88 -122.46,73.52 -188.83,125.38 -277.92,217.2 -299.18,740.52 104.67,854.21 77.34,21.78 246.16,45.53 327.84,35.33 53.92,-6.73 127.34,-5.26 178.01,-9.61 57.52,-4.94 111.55,-18.26 164.36,-22.66 4.95,-59.4 116.33,-275.13 127.18,-321.71 -25.95,2.15 -36.68,8.84 -58.92,15.89 -112.64,35.74 -371.52,70.49 -466.75,-13.88 -132.46,-117.33 -65.42,-283.09 54.25,-368.75 203.25,-145.47 475.93,-141.98 718.29,-269.2 17.63,-9.25 41.46,-25.02 59.85,-29.94 -44.04,189.03 -97.81,515.91 -142.68,732.67 -8.01,38.71 -19.75,85.59 -27.51,122.12 -8.79,41.31 -24.32,83.67 -24.32,125.32l321.68 -7.48c82.34,0 135.52,7.48 216.94,7.48 0,-37.47 6.43,-58.12 11.8,-92.94l113.53 -657.08c25.75,-127.33 46.93,-242.29 72.29,-369.12 12.89,-64.47 24.59,-117.3 35.3,-181.67 21.78,-131.06 70.95,-342.53 -36.32,-452 -52.12,-53.19 -67.62,-72.23 -139.14,-107.75 -330.92,-164.32 -967.27,-59.04 -1306.76,20.06z"/>
   <path class="fil0" d="M9987.41 2998.68c0,358.2 155.44,582.97 409.16,690.61 136.97,58.1 314.97,74.13 465.96,65.11 112.28,-6.71 120.46,2.12 258.73,-18.26l235.14 -41.65 127.18 -411.5c-81.29,6.76 -189.89,82.3 -516.18,82.3 -127.06,0 -243.73,-53.49 -315.42,-111.01 -37.82,-30.34 -69.58,-82.29 -87.63,-129.32 -84.78,-220.9 8.29,-555.26 137.89,-728.13 44.74,-59.67 123.72,-126.93 190.24,-161.39 178.57,-92.5 388.31,-91.62 582.19,-43.35 34.99,8.72 69.76,18.48 105.24,29.42l105.65 29.01c0,-86 29.92,-319.9 29.92,-411.49 -292.84,-68.24 -336.32,-67.34 -628.39,-67.34 -164.63,0 -360.31,47.94 -473.91,102.11 -401.67,191.57 -625.77,683.72 -625.77,1124.88z"/>
   <path class="fil0" d="M8603.46 2310.37c0,147.94 44.7,247.66 136.61,342.2 19.67,20.24 21.22,31.16 41.66,48.1l279.81 251.37c42.41,42.44 147.86,106.1 147.86,211.24 0,88.68 -53.44,146.78 -110.46,181.31 -166.6,100.83 -472.81,31.74 -647.34,-36.91 -21.72,-8.55 -40.53,-16.18 -58.74,-23.54 -23.52,-9.53 -35.2,-18.11 -58.71,-23.59 0,76.81 -7.66,128.86 -7.48,209.49 0.19,76.52 -7.48,128.99 -7.48,209.48 35.12,0.79 72.91,15.26 105.26,21.91 247.39,50.85 566.4,87.43 802.59,18.18 135.43,-39.7 253.06,-89.02 339.64,-176.56 160.12,-161.9 220.08,-370.06 116.6,-576.87 -35.43,-70.81 -101.27,-154.13 -164.01,-202.59 -27.18,-20.99 -38.97,-40.02 -66.16,-61.01 -27.4,-21.17 -39.32,-36.5 -64.16,-55.54l-99.47 -87.56c-78.71,-66.19 -175.84,-138.63 -145.64,-261.96 48.32,-197.34 412.78,-170.21 578.68,-133.72 56.27,12.38 157.38,54.69 182.6,56.79l22.56 -337.09c2.3,-56.33 21.94,-54.35 -40.28,-64.07 -320.1,-50.04 -779,-110.24 -1056.38,90.07 -102.73,74.2 -227.56,229.86 -227.56,400.87z"/>
   <path class="fil0" d="M13488.44 3716.93l336.64 -7.48c82.34,0 135.52,7.48 216.94,7.48 0,-135.04 380.78,-2104.59 418.22,-2290.1 62.74,-310.78 75.02,-261.16 -6.77,-261.16l-418.93 0c-82.99,0 -61.57,-48.47 -85.49,94.06 -9.85,58.69 -17.21,111.4 -26.7,167.82 -72.42,430.79 -151.91,892.61 -237.53,1318.63l-127.14 650.94c-21.58,108.55 -44.84,215.07 -69.24,319.81z"/>
   <path class="fil1" d="M7728.2 4734.44c0,30.55 23.45,22.45 82.29,22.45 17.24,0 22.44,-5.21 22.44,-22.45l0 -4339.4 -104.73 0 0 4339.4z"/>
  </g>
 </g>
</svg>
