<?xml version="1.0" encoding="utf-8"?>
<!-- Generator: Adobe Illustrator 23.0.5, SVG Export Plug-In . SVG Version: 6.00 Build 0)  -->
<svg version="1.1" id="Capa_1" xmlns:xodm="http://www.corel.com/coreldraw/odm/2003"
	 xmlns="http://www.w3.org/2000/svg" xmlns:xlink="http://www.w3.org/1999/xlink" x="0px" y="0px" viewBox="0 0 481.9 141.7"
	 style="enable-background:new 0 0 481.9 141.7;" xml:space="preserve">
<style type="text/css">
	.st0{fill-rule:evenodd;clip-rule:evenodd;fill:#FFFFFF;}
</style>
<g id="Capa_x0020_1">
	<g id="_2162390726864">
		<path class="st0" d="M17.2,116.2c-0.6,1.2-3.5,6.7-3.6,7.6l81,0c1.3,0,1.6-0.2,3-0.2c5.2,0,13.5-1.8,18.6-3.3
			c1.7-0.5,3.2-0.9,4.8-1.6c9.8-3.9,15.4-7.1,23.2-14.3c0.6-0.5,0.9-0.9,1.4-1.6c0.8-1.1,2.6-2.8,4.4-5.1c4.3-5.7,6.2-9.6,8.8-16.2
			c0.6-1.4,1.1-3.1,1.5-4.6c0.3-1.3,1.2-3.8,1.3-5.1h-50.3c0,4.7-2.8,9.6-4.8,12.3c-12,16.4-39.2,23.9-58.7,27.8
			c-2.5,0.5-4.8,0.9-7.4,1.3C37.2,113.9,20.3,116.2,17.2,116.2z"/>
		<path class="st0" d="M51.3,71.9h49.2c1.1,0,0.3-1,0.9-3.3c1.9-7.4,7.1-12.9,12.8-17.5c3.1-2.5,7-4.8,10.7-6.7
			c17.4-8.7,35.2-12.4,54.4-15.1c2.2-0.3,13.4-1.7,15.7-1.7c0.8-1.5,3.6-6.7,3.8-7.6l-81.2,0c-2.2,0-4,0.2-6,0.4
			c-11.4,1-23.8,5-33.1,10.8c-6.3,4-12,9.2-16.5,15.1c-0.9,1.2-1.6,2.4-2.5,3.7c-3.6,5.4-6.8,13.5-8.5,19.9
			C51,70.7,50.4,71.9,51.3,71.9z"/>
		<path class="st0" d="M417.1,53.2c-0.5,2.1-2.9,9.1-3,10l4.6-1.6c1.6-0.5,3.1-0.9,4.8-1.3c3.8-0.9,20.9-4.4,20.9,3.3
			c0,7.5-10.5,8.1-17.3,9.8c-2.3,0.6-4.7,1.2-7,1.9c-4.6,1.5-8.2,3.1-11.6,6c-9.2,7.8-8.3,24.7,8.4,25.2c1,0,2.6,0.1,3.2,0.1
			c2,0,7.5-0.4,9.5-0.8c1.1-0.2,1.7-2.7,2.4-4.4c0.3-0.8,0.7-1.6,1-2.4c0.4-0.9,0.9-1.7,1.1-2.5c-0.7,0.1-1,0.3-1.7,0.5
			c-3.6,1.1-11.2,2.1-14-1.1c-2.7-3.2-0.9-7.4,2.3-9.7c5.3-3.9,14.2-4.6,18.7-6.8l3.4-1.7c-1.3,5.8-2.8,14.4-4.1,20.7
			c-0.3,1.5-1.4,5.9-1.4,7.1c3.5,0,9.1-0.5,12.6-0.1c3.6,0.5,2.5,0.3,3.7-6.8l4.4-23.6c0.9-4.6,2.1-9.3,2.1-13.8
			c0-8.3-10.4-10.8-17.2-10.8C431.9,50.2,427.4,50.8,417.1,53.2L417.1,53.2z"/>
		<path class="st0" d="M340.4,53.2c-0.4,1.6-0.9,3.3-1.4,5l-1.6,5l4.6-1.6c5-1.7,18-4.5,23.2-1.8c3.6,1.8,5.4,9.3-7.7,12
			c-2.4,0.5-4.7,1-7.1,1.6c-1.1,0.3-2.3,0.5-3.6,0.9c-3.3,0.9-6.7,1.9-9.7,3.4c-2.3,1.1-3.5,2.1-5.4,3.6c-7.9,6.2-8.5,21,3,24.2
			c2.2,0.6,7,1.3,9.3,1c1.5-0.2,3.6-0.1,5-0.3c1.6-0.1,3.2-0.5,4.7-0.6c0.1-1.7,3.3-7.8,3.6-9.1c-0.7,0.1-1,0.3-1.7,0.5
			c-3.2,1-10.5,2-13.2-0.4c-3.8-3.3-1.9-8,1.5-10.5c5.8-4.1,13.5-4,20.4-7.6c0.5-0.3,1.2-0.7,1.7-0.8c-1.2,5.4-2.8,14.6-4,20.8
			c-0.2,1.1-0.6,2.4-0.8,3.5c-0.2,1.2-0.7,2.4-0.7,3.6l9.1-0.2c2.3,0,3.8,0.2,6.1,0.2c0-1.1,0.2-1.6,0.3-2.6l3.2-18.6
			c0.7-3.6,1.3-6.9,2-10.5c0.4-1.8,0.7-3.3,1-5.1c0.6-3.7,2-9.7-1-12.8c-1.5-1.5-1.9-2-3.9-3.1C368,48,350,50.9,340.4,53.2z"/>
		<path class="st0" d="M283.1,85c0,10.2,4.4,16.5,11.6,19.6c3.9,1.6,8.9,2.1,13.2,1.8c3.2-0.2,3.4,0.1,7.3-0.5l6.7-1.2l3.6-11.7
			c-2.3,0.2-5.4,2.3-14.6,2.3c-3.6,0-6.9-1.5-8.9-3.1c-1.1-0.9-2-2.3-2.5-3.7c-2.4-6.3,0.2-15.7,3.9-20.6c1.3-1.7,3.5-3.6,5.4-4.6
			c5.1-2.6,11-2.6,16.5-1.2c1,0.2,2,0.5,3,0.8l3,0.8c0-2.4,0.8-9.1,0.8-11.7c-8.3-1.9-9.5-1.9-17.8-1.9c-4.7,0-10.2,1.4-13.4,2.9
			C289.5,58.5,283.1,72.5,283.1,85L283.1,85z"/>
		<path class="st0" d="M243.9,65.5c0,4.2,1.3,7,3.9,9.7c0.6,0.6,0.6,0.9,1.2,1.4l7.9,7.1c1.2,1.2,4.2,3,4.2,6c0,2.5-1.5,4.2-3.1,5.1
			c-4.7,2.9-13.4,0.9-18.3-1c-0.6-0.2-1.1-0.5-1.7-0.7c-0.7-0.3-1-0.5-1.7-0.7c0,2.2-0.2,3.7-0.2,5.9c0,2.2-0.2,3.7-0.2,5.9
			c1,0,2.1,0.4,3,0.6c7,1.4,16.1,2.5,22.8,0.5c3.8-1.1,7.2-2.5,9.6-5c4.5-4.6,6.2-10.5,3.3-16.4c-1-2-2.9-4.4-4.6-5.7
			c-0.8-0.6-1.1-1.1-1.9-1.7c-0.8-0.6-1.1-1-1.8-1.6l-2.8-2.5c-2.2-1.9-5-3.9-4.1-7.4c1.4-5.6,11.7-4.8,16.4-3.8
			c1.6,0.4,4.5,1.6,5.2,1.6l0.6-9.6c0.1-1.6,0.6-1.5-1.1-1.8c-9.1-1.4-22.1-3.1-29.9,2.6C247.4,56.2,243.9,60.6,243.9,65.5
			L243.9,65.5z"/>
		<path class="st0" d="M382.3,105.4l9.5-0.2c2.3,0,3.8,0.2,6.1,0.2c0-3.8,10.8-59.7,11.9-64.9c1.8-8.8,2.1-7.4-0.2-7.4h-11.9
			c-2.4,0-1.7-1.4-2.4,2.7c-0.3,1.7-0.5,3.2-0.8,4.8c-2.1,12.2-4.3,25.3-6.7,37.4l-3.6,18.5C383.7,99.4,383,102.4,382.3,105.4z"/>
		<path class="st0" d="M219.1,134.2c0,0.9,0.7,0.6,2.3,0.6c0.5,0,0.6-0.1,0.6-0.6v-123h-3V134.2z"/>
	</g>
</g>
</svg>
